<svg xmlns="http://www.w3.org/2000/svg">
    <!-- symbols go here -->
    <symbol
        viewBox="0 0 901.000000 815.000000"
        preserveAspectRatio="xMidYMid meet"
        id="kanka-logo">
        <g
            transform="translate(0.000000,815.000000) scale(0.100000,-0.100000)"
            fill="currentcolor"
            stroke="none" >
            <path d="M4383 8135 c-61 -17 -144 -57 -191 -93 -26 -20 -449 -476 -546 -589
l-23 -27 -74 75 c-117 117 -235 169 -387 169 -97 0 -203 -31 -284 -83 -35 -22
-277 -280 -772 -822 -396 -435 -733 -805 -748 -823 l-27 -32 -572 0 c-423 0
-582 -3 -613 -12 -53 -16 -118 -81 -134 -134 -9 -32 -12 -345 -12 -1356 l0
-1314 25 -51 c16 -32 41 -61 67 -79 l41 -29 574 -3 573 -2 0 -538 0 -538 1593
-920 c875 -505 1601 -919 1612 -918 11 0 733 413 1605 917 l1585 916 3 540 2
541 585 0 c560 0 587 1 624 19 57 30 98 82 110 143 8 37 11 437 9 1358 l-3
1305 -28 47 c-18 31 -44 57 -75 75 l-47 28 -570 5 -570 5 -81 90 c-45 50 -376
414 -737 810 -460 505 -674 732 -716 761 -90 63 -159 86 -276 91 -87 4 -110 2
-176 -20 -95 -30 -170 -80 -248 -163 -33 -35 -64 -64 -68 -63 -4 0 -114 117
-243 260 -278 308 -349 377 -421 412 -114 56 -255 72 -366 42z m228 -338 c43
-25 606 -640 591 -645 -5 -1 -88 40 -184 93 -96 52 -180 95 -186 95 -7 0 -82
-52 -166 -116 l-155 -115 -154 115 c-84 64 -159 116 -166 116 -6 0 -91 -43
-187 -96 -96 -53 -178 -93 -181 -90 -4 3 5 19 19 34 13 15 143 156 287 314
144 158 271 293 283 299 64 34 138 33 199 -4z m-1386 -458 c29 -8 59 -30 108
-81 l69 -70 -24 -27 c-14 -14 -98 -107 -188 -206 -89 -99 -168 -186 -174 -193
-10 -10 -29 0 -91 47 -44 33 -82 58 -85 56 -128 -72 -363 -195 -367 -191 -7 6
-13 -1 321 365 293 321 310 333 431 300z m2719 0 c25 -7 58 -29 90 -62 112
-114 548 -598 543 -604 -5 -4 -200 97 -333 174 l-41 23 -87 -66 c-75 -56 -89
-63 -99 -51 -7 8 -93 104 -192 212 -99 108 -181 200 -183 205 -2 4 25 39 60
76 90 96 149 119 242 93z m-4512 -2166 c16 -15 18 -36 18 -237 1 -195 2 -219
15 -202 8 11 66 112 130 226 83 150 122 210 140 218 34 15 508 17 536 2 10 -6
19 -20 19 -31 0 -12 -85 -164 -190 -340 -105 -175 -190 -323 -190 -329 0 -6
73 -133 162 -283 145 -245 162 -269 170 -247 5 14 102 288 214 610 124 354
212 593 225 605 18 19 35 20 288 23 268 3 269 3 295 -20 22 -19 70 -145 266
-708 132 -377 240 -694 240 -705 0 -43 -13 -45 -245 -45 -178 0 -225 3 -242
15 -12 8 -32 48 -49 95 l-27 80 -231 0 -231 0 -28 -80 c-17 -47 -37 -86 -50
-95 -18 -13 -86 -15 -465 -15 l-443 0 -22 23 c-12 12 -78 122 -146 245 -68
122 -128 225 -132 228 -5 3 -9 -100 -9 -230 0 -200 -2 -237 -16 -250 -23 -24
-455 -24 -478 0 -14 14 -16 93 -16 721 0 643 1 708 17 725 15 16 36 18 236 18
191 0 223 -2 239 -17z m2831 6 c16 -7 85 -111 206 -310 101 -164 187 -302 192
-305 5 -3 9 118 9 292 0 263 2 300 17 316 15 16 35 18 222 18 171 0 210 -3
229 -16 l22 -15 0 -706 c0 -643 -1 -708 -17 -725 -14 -16 -35 -18 -209 -18
-106 0 -200 3 -209 6 -9 4 -103 136 -208 293 l-192 286 -5 -283 c-4 -237 -7
-284 -20 -292 -8 -5 -110 -10 -227 -10 -179 0 -214 2 -227 16 -14 14 -16 93
-16 721 0 643 1 708 17 725 14 16 35 18 204 18 114 0 197 -4 212 -11z m1536
-6 c20 -17 21 -28 23 -238 l3 -220 125 225 c86 155 133 228 150 237 18 9 95
13 277 13 215 0 254 -2 267 -16 9 -8 16 -21 16 -28 0 -7 -88 -160 -194 -339
l-195 -327 182 -306 181 -306 17 48 c281 811 433 1233 450 1249 18 19 35 20
288 23 268 3 269 3 295 -20 22 -19 70 -145 266 -708 132 -377 240 -694 240
-705 0 -43 -13 -45 -245 -45 -178 0 -225 3 -242 15 -12 8 -32 48 -49 95 l-27
80 -231 0 -231 0 -28 -80 c-17 -47 -37 -86 -50 -95 -32 -22 -942 -23 -974 0
-12 8 -81 122 -155 252 l-133 238 -3 -234 c-2 -202 -5 -237 -19 -253 -15 -17
-34 -18 -247 -16 l-230 3 -13 25 c-10 20 -12 173 -10 723 2 679 3 699 21 713
16 11 65 14 237 14 192 0 219 -2 238 -17z m-3601 -2523 c62 -55 117 -100 122
-100 5 0 81 46 170 101 88 56 163 99 166 96 4 -3 -26 -45 -65 -93 -40 -47 -70
-91 -68 -98 5 -16 3908 -21 3918 -4 4 7 -21 45 -62 95 -61 75 -79 103 -65 103
3 0 73 -43 155 -95 83 -53 158 -98 166 -101 10 -4 51 26 116 82 114 101 137
119 145 112 2 -3 -16 -58 -41 -123 -26 -68 -42 -122 -37 -130 4 -8 174 -136
377 -285 204 -149 374 -275 379 -280 33 -33 -47 1 -420 180 -240 115 -428 200
-441 198 -14 -2 -338 -330 -888 -898 -477 -492 -884 -913 -906 -935 -21 -21
-41 -36 -44 -33 -3 3 345 423 774 932 430 509 781 933 781 941 0 13 -223 15
-1947 13 -1286 -2 -1947 -6 -1950 -13 -1 -5 333 -408 743 -895 410 -487 762
-904 782 -928 122 -148 -79 53 -883 882 -576 594 -915 936 -927 936 -10 0
-208 -90 -439 -201 -367 -175 -462 -215 -423 -180 5 4 177 131 383 282 205
150 375 279 378 287 3 7 -7 46 -22 85 -15 40 -36 93 -46 120 -14 34 -15 47 -6
47 6 -1 63 -46 125 -100z"/>
            <path d="M2962 4668 c-38 -120 -102 -338 -102 -347 0 -7 38 -11 115 -11 91 0
115 3 115 14 0 15 -107 366 -114 373 -2 2 -9 -11 -14 -29z"/>
            <path d="M7382 4668 c-38 -120 -102 -338 -102 -347 0 -7 38 -11 115 -11 91 0
115 3 115 14 0 15 -107 366 -114 373 -2 2 -9 -11 -14 -29z"/>
        </g>
    </symbol>
</svg>
