<?xml version="1.0" encoding="iso-8859-1"?>
<!-- Generator: Adobe Illustrator 19.0.0, SVG Export Plug-In . SVG Version: 6.00 Build 0)  -->
<svg version="1.1" id="Layer_1" xmlns="http://www.w3.org/2000/svg" xmlns:xlink="http://www.w3.org/1999/xlink" x="0px" y="0px"
	 viewBox="0 0 512 512" style="enable-background:new 0 0 512 512;" xml:space="preserve">
<circle style="fill:#E16B5A;" cx="256" cy="256" r="256"/>
<path style="fill:#CC6152;" d="M489.264,310.368c-0.276-0.684-0.532-1.372-0.836-2.052c-0.268-0.68-0.524-1.364-0.82-2.044
	c-0.276-0.688-0.54-1.384-0.836-2.076c-0.264-0.664-0.516-1.332-0.804-1.992c-0.284-0.712-0.556-1.416-0.86-2.12
	c-0.264-0.664-0.516-1.336-0.8-1.992c-0.28-0.704-0.544-1.412-0.856-2.1c-0.26-0.664-0.508-1.328-0.796-1.984
	c-0.28-0.704-0.548-1.416-0.856-2.108c-0.264-0.664-0.512-1.336-0.804-1.992c-0.276-0.708-0.544-1.412-0.852-2.1
	c-0.26-0.664-0.508-1.328-0.8-1.984c-0.28-0.704-0.54-1.408-0.848-2.092c-0.268-0.684-0.528-1.372-0.824-2.044
	c-0.272-0.684-0.528-1.372-0.828-2.052c-0.272-0.68-0.528-1.368-0.828-2.048c-0.272-0.688-0.532-1.384-0.832-2.064
	c-0.268-0.68-0.524-1.36-0.82-2.032c-0.268-0.68-0.524-1.364-0.824-2.04c-0.272-0.696-0.536-1.392-0.84-2.084
	c-0.268-0.676-0.516-1.352-0.808-2.02c-0.28-0.692-0.54-1.384-0.836-2.072c-0.272-0.688-0.532-1.376-0.828-2.056
	c-0.272-0.684-0.532-1.376-0.836-2.056c-0.272-0.68-0.524-1.36-0.82-2.032c-0.272-0.696-0.532-1.392-0.836-2.072
	c-0.264-0.672-0.516-1.352-0.812-2.016c-0.272-0.7-0.54-1.4-0.844-2.084c-0.268-0.68-0.516-1.36-0.82-2.024
	c-0.272-0.688-0.532-1.384-0.828-2.068c-0.268-0.676-0.524-1.352-0.82-2.02c-0.276-0.708-0.54-1.416-0.852-2.108
	c-0.264-0.664-0.508-1.328-0.804-1.984c-0.276-0.704-0.54-1.412-0.852-2.1c-0.26-0.664-0.508-1.328-0.796-1.988
	c-0.28-0.704-0.548-1.412-0.86-2.104c-0.26-0.664-0.508-1.336-0.8-1.992c-0.28-0.708-0.544-1.416-0.856-2.104
	c-0.264-0.668-0.508-1.34-0.804-2.004c-0.276-0.696-0.54-1.392-0.84-2.08c-0.272-0.684-0.528-1.368-0.824-2.044
	c-0.272-0.684-0.532-1.372-0.828-2.048c-0.272-0.684-0.528-1.372-0.824-2.044c-0.276-0.688-0.532-1.384-0.832-2.068
	c-0.272-0.68-0.524-1.364-0.824-2.036c-0.276-0.692-0.536-1.392-0.836-2.072c-0.268-0.68-0.52-1.36-0.82-2.032
	c-0.276-0.692-0.536-1.388-0.836-2.072c-0.268-0.676-0.52-1.36-0.82-2.032c-0.268-0.688-0.528-1.376-0.832-2.056
	c-0.272-0.68-0.524-1.36-0.82-2.032c-0.28-0.7-0.54-1.4-0.844-2.084c-0.264-0.672-0.516-1.344-0.812-2.008
	c-0.272-0.696-0.532-1.384-0.828-2.072c-0.28-0.688-0.536-1.384-0.836-2.068c-0.272-0.684-0.524-1.364-0.82-2.036
	c-0.272-0.68-0.532-1.368-0.828-2.048c-0.276-0.688-0.532-1.376-0.836-2.056c-0.272-0.684-0.524-1.376-0.828-2.056
	c-0.272-0.68-0.524-1.36-0.82-2.032c-0.28-0.7-0.54-1.404-0.852-2.088c-0.26-0.668-0.508-1.34-0.804-2.004
	c-0.28-0.704-0.54-1.408-0.852-2.092c-0.26-0.664-0.508-1.34-0.804-2c-0.276-0.696-0.54-1.396-0.844-2.084
	c-0.264-0.668-0.508-1.34-0.804-2.004c-0.28-0.712-0.548-1.416-0.86-2.116c-0.264-0.664-0.508-1.332-0.804-1.996
	c-0.276-0.696-0.54-1.396-0.844-2.084c-0.268-0.68-0.524-1.36-0.82-2.032c-0.276-0.692-0.54-1.388-0.836-2.076
	c-0.268-0.676-0.524-1.356-0.82-2.024c-0.272-0.684-0.524-1.372-0.824-2.044c-0.268-0.688-0.528-1.384-0.832-2.068
	c-0.272-0.688-0.532-1.38-0.832-2.06c-0.268-0.68-0.524-1.368-0.824-2.04c-0.272-0.688-0.532-1.384-0.836-2.068
	c-0.264-0.676-0.516-1.352-0.812-2.016c-0.28-0.704-0.544-1.412-0.848-2.096c-0.26-0.656-0.504-1.32-0.792-1.968
	c-0.28-0.712-0.552-1.424-0.864-2.128c-0.26-0.668-0.512-1.336-0.8-1.992c-0.28-0.704-0.548-1.412-0.856-2.104
	c-0.26-0.664-0.512-1.336-0.8-1.992c-0.28-0.704-0.548-1.412-0.856-2.1c-0.26-0.668-0.512-1.336-0.8-1.996
	c-0.28-0.708-0.548-1.412-0.852-2.1c-0.264-0.656-0.508-1.316-0.796-1.964c-0.276-0.708-0.54-1.416-0.852-2.108
	c-0.268-0.68-0.524-1.368-0.82-2.04c-4.82-12.056-13.648-23.252-27.304-33.188c-14.32-10.416-39.548-5.196-68.572,10.968
	c-4.9,10.12-10.168,21.532-14.884,32.524c0-0.56,0-1.084,0-1.656c-1.336,0.892-2.668,1.828-4,2.752c0-1.548,0-3.152,0-4.792
	c0-0.688,0-1.344,0-2.052c0-0.664,0-1.376,0-2.048c0-0.68,0-1.36,0-2.056c0-0.688,0-1.344,0-2.048c-1.336,0.888-2.668,1.824-4,2.752
	c0-1.564,0-3.156,0-4.796c0-0.68,0-1.36,0-2.056c0-0.688,0-1.344,0-2.048c-34.008,23.928-70.468,60.008-99.584,101.752
	c-4.992,18.06-6.74,36.416-4.416,48.04c-5.112-1.704-10.94-7.772-16.268-15.092c-29.74,25.4-24.58,58.608-33.564,105.54L95.72,396
	l33.08,82.124C166.28,499.636,209.684,512,256,512c114.288,0,211.056-74.916,243.96-178.3
	C494.564,321.92,489.36,310.592,489.264,310.368z"/>
<polygon style="fill:#B3B3B3;" points="122.092,396 177.12,350.144 166.88,337.856 97.104,396 "/>
<path style="fill:#E6E6E6;" d="M336,244c16.832-16.832,39.3-27.928,55.548-23.9c33.5-46.336,41.776-93.976-4.084-127.336
	c-14.324-10.416-39.548-5.196-68.572,10.968C310.916,120.196,301.972,140.08,296,156c0-8.528,0-21.176,0-37.78
	c-34.008,23.924-70.468,60.008-99.584,101.748c-4.992,18.06-6.74,36.416-4.416,48.04c-5.112-1.704-10.94-7.768-16.268-15.088
	C144,280,152,316,140.16,368.064C180,360,236,372,259.824,331.22c-3.032-0.564-6.136-1.532-7.824-3.22
	c7.908-3.952,17.764-5.952,26.688-7.928c35.728-22.244,70.472-50.172,96.488-79.596C360,232,340.952,246.476,336,244z"/>
<path style="fill:#F5F5F5;" d="M140.16,368.064C152,316,144,280,175.732,252.908C181.06,260.228,186.888,266.3,192,268
	c-2.324-11.616-0.576-29.98,4.416-48.04c29.116-41.74,65.576-77.816,99.584-101.748c0,16.608,0,29.256,0,37.784
	c5.972-15.916,14.916-35.804,22.884-52.26c29.024-16.164,54.252-21.384,68.572-10.968C376,148,220,308,140.16,368.064z"/>
<g>
</g>
<g>
</g>
<g>
</g>
<g>
</g>
<g>
</g>
<g>
</g>
<g>
</g>
<g>
</g>
<g>
</g>
<g>
</g>
<g>
</g>
<g>
</g>
<g>
</g>
<g>
</g>
<g>
</g>
</svg>
